<?xml version="1.0" encoding="utf-8"?>
<!-- Generator: Adobe Illustrator 26.0.2, SVG Export Plug-In . SVG Version: 6.00 Build 0)  -->
<svg version="1.1" id="Layer_1" xmlns="http://www.w3.org/2000/svg" xmlns:xlink="http://www.w3.org/1999/xlink" x="0px" y="0px"
	 viewBox="0 0 790.5 1206.9" style="enable-background:new 0 0 790.5 1206.9;" xml:space="preserve">
<g>
	<path d="M333,410.8c16.1-5.7,31.9-12.2,47.3-19.5c0,0-34.4-40.6,54.4-30.7c21.7-15,40.9-32.7,50.1-52.5
		c17-36.3-86.7,11.5-86.7,11.5s-73.5-41.6-41.5-124c0,0,14.2-21.5-61.3-2.2c-119.3,30.6-133.9,66.9-132.5,69.1
		c1.4,2.2,14.4-3.4,17.9-0.4c20.7,17.7,35,58.3,24.5,121.3c-26.5,21.3-68.4,42.5-79.7,63.8C114.3,468.3,287.2,426.1,333,410.8z
		 M423.3,327.9c10.2-2.3-0.3,5.7-0.9,6c0,0-6.8,5.4-10.7,8.2c-3.8,2.7,13.7-10.8,10.6-10.9c-2-0.1-22.4-9.3-23.4-10.9
		C399,320.2,415.3,329.7,423.3,327.9z M185.7,263.5l-4.2-3.3c2.6-0.2,96.3-20.1,114.2-34.5C282.2,237.8,184.3,266.8,185.7,263.5z
		 M210.7,365.8c6.9,17.1,130.3,1.5,186.1-27c-18.2,9.6-122.7,62.6-189.6,58.9L210.7,365.8z M157.5,424.2l21.4-17l26.4-19.4
		l-50.9,42.4C146.9,432.4,157.5,424.2,157.5,424.2z"/>
	<path d="M395,643.5c1.8,0,3.6-0.2,5.5-0.4l-38.6-9.7C370.9,639.3,382.4,643.7,395,643.5z"/>
	<path d="M274.6,709.5l0.2,0C274.8,709.5,274.7,709.5,274.6,709.5L274.6,709.5z"/>
	<path d="M272.9,709.9c0.1,0,0.2,0,0.3-0.1l-24.1,3.7C257.1,712.8,265,711.6,272.9,709.9z"/>
	<polygon points="365.3,855 365.9,854.7 365.8,853.3 	"/>
	<path d="M301.9,728.2c-0.1,0.1-0.2,0.3-0.4,0.4c-0.2,0.2-0.2,0.2-0.3,0.3l-0.3,0.4c-0.4,0.5-0.8,1-1.1,1.6
		c-0.1,0.1-0.2,0.3-0.3,0.5c-0.1,0.2-0.2,0.3-0.3,0.5l-0.3,0.5c-0.2,0.3-0.3,0.6-0.4,0.9c-0.1,0.3-0.3,0.8-0.5,1.2
		c1.2-0.5,2.4-1,3.6-1.6c0-0.3,0-0.5,0-0.8s0-0.5,0-0.7c0,0,0-0.1,0-0.1c0-0.4,0-0.7,0.1-1.1c0.1-0.4,0-0.5,0.1-0.8
		c0-0.5,0.1-1,0.2-1.4C302,728,302,728.1,301.9,728.2L301.9,728.2z"/>
	<path d="M381.5,548.1c-14.3,0-26,11-26,24.5c0,13.5,11.6,24.5,26,24.5c14.3,0,26-11,26-24.5S395.8,548.1,381.5,548.1z M392.2,565.4
		c-0.4,0.8-0.9,1.6-1.5,2.2c-0.6,0.6-1.4,1.1-2.3,1.5c-0.8,0.3-1.7,0.5-2.7,0.5c-0.9,0-1.8-0.2-2.7-0.5c-0.8-0.3-1.6-0.8-2.3-1.5
		c-0.6-0.6-1.2-1.4-1.5-2.2c-0.3-0.8-0.5-1.7-0.5-2.6c0-0.9,0.2-1.8,0.5-2.6c0.4-0.8,0.9-1.6,1.5-2.2c0.6-0.6,1.4-1.1,2.3-1.5
		c0.8-0.3,1.7-0.5,2.7-0.5c0.9,0,1.8,0.2,2.7,0.5c0.8,0.3,1.6,0.8,2.3,1.5c0.6,0.6,1.2,1.4,1.5,2.2c0.4,0.8,0.5,1.7,0.5,2.6
		C392.7,563.6,392.5,564.5,392.2,565.4z"/>
	<path d="M296.8,595.9c8.4,0,15.6-7.2,15.3-16.1c-0.3-9.9-7.6-15.2-15.3-16c-8.8-1-15.3,5.6-15.3,16
		C281.6,588.7,288.4,595.9,296.8,595.9z M299.9,573.1c0.2-0.5,0.5-1,0.9-1.3c0.4-0.4,0.9-0.7,1.4-0.9c0.5-0.2,1.1-0.3,1.6-0.3
		c0.6,0,1.1,0.1,1.6,0.3c0.5,0.2,1,0.5,1.4,0.9c0.4,0.4,0.7,0.8,0.9,1.3c0.2,0.5,0.3,1.1,0.3,1.6c0,0.5-0.1,1.1-0.3,1.6
		c-0.2,0.5-0.5,1-0.9,1.3c-0.4,0.4-0.9,0.7-1.4,0.9c-0.5,0.2-1.1,0.3-1.6,0.3c-0.6,0-1.1-0.1-1.6-0.3c-0.5-0.2-1-0.5-1.4-0.9
		c-0.4-0.4-0.7-0.8-0.9-1.3c-0.2-0.5-0.3-1-0.3-1.6S299.7,573.6,299.9,573.1z"/>
	<path d="M319.5,624c0.1,0.3,0.1,0.5,0.2,0.8c-0.2-0.9-0.4-1.9-0.3-2.9c0.1-3.4,2.7-6.3,5-8.9c1.1-1.2,2.4-2.4,4-2.4
		c1.7,0.1,1.6,2,0.9,3.5c0.9-1.6,2.2-3.8,1.1-5.3c-6-7.5-12.2,5.3-11.9,9.9C318.6,620.6,319,622.3,319.5,624z"/>
	<path d="M258.1,614.6c-0.1-1.3-0.2-2.6-0.4-4C257.7,611.9,257.8,613.3,258.1,614.6z"/>
	<polygon points="227.2,803.4 203,797.7 192.3,797.7 197.2,803.4 	"/>
	<polygon points="130.7,770.7 141.2,777.9 121.1,734.8 	"/>
	<polygon points="157.6,739.8 178.7,759.4 190.7,756.4 	"/>
	<polygon points="184,739 175.4,735.8 184.2,742.5 205.2,735.8 	"/>
	<polygon points="169.5,788.5 170.5,793.9 180.2,800.4 172.6,791.2 	"/>
	<polygon points="191.2,775.1 211,780.4 196.5,770.1 181.5,766.5 	"/>
	<path d="M617.7,439.7c-9.2-19.6-77.1-50.8-77.1-50.8l6.7,14.3c-17.3-20.9-81.3-41.2-81.3-41.2l48.8,35.9l-78.5-35.9
		c0,0-1.2-0.2-3.2-0.4l1.3-0.9l-1.6,0.9h0c-5.6-0.7-17.1-1.8-28.3-1.2h0c-0.9,0-1.7,0.1-2.6,0.2c7.7,1.1,15.2,3,22.4,5.8
		c22.1,8.5,33,21.9,33.9,23c-11-10.5-24.7-17.2-36.5-21.5c-8.2-3-16.7-5.3-25.4-6.7c-8.6,1.3-16,4-19.2,9.2
		c-0.4,0.6-0.7,1.3-0.9,1.9c0.4,0.1,0.9,0.1,1.3,0.2c7.7,1.3,14.9,4.5,21.1,8.5c8.9,5.7,16.8,12.8,23.5,21
		c-5.6-6.3-15.8-13.9-25.9-19.6c-6.6-3.7-13.1-6.5-18.3-7.6c-0.8-0.2-1.5-0.3-2.3-0.4c-0.3,2.7,0,5.4,0.9,7.9l1.4,3.3l0.6,1.1
		c0.1,0.2,0.2,0.3,0.3,0.5l1.6,2.7c0.1,0.1,0.1,0.2,0.2,0.3c0.2,0.4,0.4,0.6,0.4,0.6l0.1,0.1c26.8,41.4,49.8,50,49.8,50l-0.1,0.5
		l-0.1,0.4l0,0.3l-0.1,0.6c0,0,0,0.1,0,0.1c-1.2,6.2-5.9,26.2-17.5,24.7h-0.1c-7.2-1.7-15-3.1-23.5-4.6c-21.3-3.5-37.7-1.4-53.8,4.5
		c4-2.4,4-3,4-3c0.6-0.2-10.5-9.6-30.1-15.2c-2.1,0-18.1-8.2-22.9-13.5c8.8,11.6,18.7,25.5,19.5,39.8c0,0,0,0,0,0c0,0,0,0,0,0
		c0.1,1.7,0,3.4-0.1,5.1c-0.3-2-0.7-4-1.3-6c-0.8-2.7-1.8-5.3-3.1-7.8c0-0.1-0.1-0.1-0.1-0.2c-5.6-10.9-15.7-18.7-29.4-18.3
		c7.6,3.7,19.6,9.5,23.6,21.1l0.1,0.4c0.6,1.8,1,3.6,1.1,5.5c-1-2.7-2.4-5.2-4.1-7.5c-4-5.4-9.4-10.2-11.1-10.2
		c2.1,4,8.6,14,9.5,27.4c-3.7-3.4-4.9-1.4-4.9-1.4c3.3,1.3,6,3.8,7.5,7c-4.9,3.9-9.6,8.1-13.8,12.7c3.3,1.4,30.8,13.5,45.1,31.7
		c-10.3-12.4-32.9-24.3-43.5-28.9c-0.3-0.1-0.6-0.3-2.8-1.3c-0.1,0.2-0.2,0.4-0.3,0.6c-1.7-0.3-3.3-0.5-5-0.7
		c-37.7-3.3-45.3-24.9-45.3-24.9s-2.9,17.6,4.1,28.2c7.1,10.5,20.5,16.8,13.2,14.2c-7.3-2.7-17.2-11.3-17.2-11.3s3,14.6,6.7,20
		c1.5,2.3,3.4,4.3,5.7,5.8c7.1,4.7,8.5,3.1,26.1,6.3c4.3-0.3,38.3,6.4,56.6,30.2c-17.3-22.3-54.8-29.5-56.7-29.5l0.2-0.7
		c-0.4,1.5-0.7,3.1-1.1,4.6l-0.3,1.2c-3.5,15.8-6.2,30.7-6.8,35.5c-0.7,5.2-1.6,9.9-1,15.4l-0.2-0.3c-0.1,4.2,0,7.9,0.2,11
		c0.1,1.5,0.2,2.8,0.4,4c1,9.5,3.1,13.1,3.9,14.1l0.2,0.2l2.2-9.2c-0.3,8.1,1.7,12.8,3.8,17.7c-8.3,0.4-22.5,2.7-39,6.7
		c0,0.1,0.1,0.2,0.1,0.3c0-0.1-0.1-0.2-0.1-0.3c-5-16.6-8.8-28.7-11.1-34c-5.5-13.2-12.6-27.3-25.7-34.7c-17.2-9.7-41.5-9-54.8,8.9
		c-23.6,31.7-2.9,71.3-2.9,71.3s20.5-10.3,19.3-13.2c-7.1-17.9-16.8-48.4,15.2-53.8c26.6-4.5,36.4,36.3,36.1,33.2l7.5,26.5l0.3,1.3
		c-41.8,10-90.1,27.8-104.3,51.9c-15.5,89.1,53.3,128.9,54.6,129.6c-0.5-1.2-21.2-58.4-1-26.6c20.5,32.1,59.2,15.1,59.2,15.1
		s-57.8-3.9-3.9-6.9c15.2-0.8,26.8-3.2,35.6-6.2c1.3-0.4,2.5-0.9,3.7-1.3l29.6,105l15.2-3.6c0,0-13.4-50.3-29.6-109.7
		c6.4-5,8-9.3,8-9.3c-4.3,1.1-8.7,2-13.1,2.6c-2.9,0.4-5.7,0.7-8.3,0.8c-1.5,0.1-3,0.1-4.5,0.2c-1.5,0-2.9,0-4.3-0.1
		c-20.9-1.1-35.7-14.2-35.7-14.2c10.9,1.9,22,2.6,33,2.1c0.8,0,1.6-0.1,2.5-0.1l2.9,10.1c1.4,0,2.8-0.1,4.3-0.2
		c-0.9-3.4-1.9-6.8-2.8-10.2c0.7,0,1.3-0.1,1.9-0.1c0.9-0.1,1.7-0.2,2.5-0.2c1,3.4,1.9,6.8,2.9,10.2c2.7-0.3,5.5-0.7,8.3-1.2
		c-0.9-3.3-1.8-6.7-2.8-10c8.2-1.3,16.2-3.4,24-6.3c1.5-0.6,2.8-1.1,4-1.7c9.3,9.2,26.4,26.4,29.6,29.7
		c-0.4,14.6,9.6,22.4,10.3,22.6c-0.1-0.4-2.2-7-2.3-9.6c0.2,1.4,2.2,12.8,12.8,16.5c-1.7-4.4-3.1-9-4.3-13.6c0,0,2.2,4.9,3.6,5.7
		l0.3-0.9c3.9,4,6.3,6.4,6.3,6.4l2.5-12.6l1.4,0.6c0,0.1-0.1,0.2-0.1,0.3l-0.7,3.8l-5.7,44.9l12,33.9l4.6-32.3l-3.2,60.9l12,23.9
		l9.2-27.2l8.1,44.7l32.9,19l-15.6-59.4l-15.8-62.9l34.8,103.3l4.2-14.8l35.4,39.9l-12.5-36.5c0,0,0,0,0,0c0,0,0,0,0,0
		c-0.1-0.8-0.2-1.7-0.3-2.5l35.4,57.7v-57.1l-36-50.5l32.5,32.5l7.4,10.7l41.4,40.4l58.7,29.2L459.5,858.9l42.9,35.1l55.1,59.8
		l41.1,27l-29-55.8l-3.9-3.6c0,0-21.9-18.2-34.9-28.3c11.5,7.3,29.6,18,29.6,18l-17-37.9L477,814.7l57.4,40.8l64.2,19l-123.1-77
		l-20.3-13l-6.5,1.9l-0.7-2.6c2.7-7.4,4.9-15.1,6.7-22.8l13.3,20.8c12.1-14.5,39-37.7,40-59.4c1.5-34.2,2.8-51.7,2.8-51.7l5.8,18.1
		l2.3,30.7c32.4-20.3,34.5-78.5,29.2-85.2c-0.2-0.2-0.4-0.4-0.6-0.5c0.1,0.1,0.2,0.1,0.3,0.2c-0.1-0.1-0.2-0.2-0.3-0.2
		c0.2,0.2,0.4,0.3,0.6,0.5c0,0,0,0,0,0c10.2,9.7,6.7,50.3,6.7,50.3c19.3-23.5,20.6-55.2,21.7-55.3c9.8,6.9,4.8,42.2,4.8,42.2
		c29-25.7,15.9-57.4,15.9-58.3c0.6,0.9,1.1,1.7,1.5,2.6c15.4,37.3,7.6,38,9.8,38.9c18-19.9,1.5-65.9,4.9-62.4
		c14.5,14.5,15.7,36.3,18.4,45.6c12.6-40.4,1.2-75.3,1.1-75.2c14.2,19.6,14,48.7,14,48.7c24.4-43.5-3.5-73.3-3.5-73.3
		c14.5,3,25.2,28,25.2,28c6.4-23.9-24.5-71.7-24.5-71.7c30.8,24.4,30.6,37.4,30.3,39.4C684.7,483.5,634.7,452.9,617.7,439.7z
		 M165.5,576.3L165.5,576.3c-9.7,1.1-39.9,25-25.6,70.5c1.1,3.4-3.2,4.2-3.6,3c0,0-22.6-54.7,27.8-78.8
		C166.5,570.2,168,575.3,165.5,576.3z M171.3,574.2c-0.4,0.6-1.4,0.5-2,0.1c-0.2-0.1-0.3-0.3-0.4-0.6c-0.1-0.2-0.1-0.5,0-0.7
		c0.2-0.3,0.5-0.6,0.9-0.7c0.4-0.1,0.8,0,1.1,0.2c0.1,0.1,0.3,0.2,0.4,0.3c0.1,0.1,0.2,0.3,0.2,0.4c0,0.2,0.1,0.3,0,0.5
		C171.5,573.9,171.4,574.1,171.3,574.2L171.3,574.2z M566.1,940.5v-16.9l22.5,44.9L561,952l-27.7-37.3L566.1,940.5z M535.9,869.1
		l19.1,33.8l-17.6-8.6l-53.1-49.6l53.1,42.2L535.9,869.1z M486.6,852.6l44.4,43.8L483.5,858l-20.6-8.6L486.6,852.6z M609.6,440.3
		l-30.9-19.4l32,17.8l14.2,20.3l-27-0.1l-26.3-32.4l30.1,26l15.9,0.2L609.6,440.3z M563.6,523.1h-0.4l-13.6-5.2l-0.7-7l7.1,2.2
		l0.5-10.2l-17.8-15.5l24.1,12L563.6,523.1z M547.4,408.5l-26.3-19.6l27.8,18.3l8,23.2l-17.9-1.7l-18.7-26.9l21.4,20.4l10.7,3.4
		L547.4,408.5z M503.3,421.2l-19.6-7.7l24,3.4l7.7,29.8l-25.4-8.5L467.2,408l25.2,24l12.9,2.6L503.3,421.2z M468.4,619.6
		c-1.5,2.7-2.2,6.1-4.4,8.9c1-1.9,1.6-4,2-6.1c0.7-4.6-0.4-10.2-9.7-11.7c1.7,1.4,1.5,14.9-2.4,24.8c-1.8,4.6-4.5,8.4-8.1,9.9
		c0.5-1.1,0.8-2.3,1-3.4c0.6-2.9,0.6-7.1-2.7-10.2c-0.1,0.1-6.8,12.5-21,18.7l0,0c-3.3,1.5-6.9,2.5-10.5,3
		c-23.4,3.4-37.3,0.2-51.7-8.9c-5.2-3.3-9-8.1-11.9-13.1c-5.2-9.1-7.3-18.7-8.8-21.1c1.2-0.9,6.3,11.8,18.1,20.5
		c1.1,0.8,2.4,1.7,3.6,2.5l38.6,9.7c13.1-1.6,27.2-8.6,40.9-24.4c0,0,5.8,2.7,7.8,8.9c0,0,3.4-7.4,0.7-22.7c0,0,5.5-0.1,15.1,3.6
		c0,0,2-10.8-4.7-16c0,0,5.4-1.3,15.4,0.5c0,0,5.2-17.4-5.9-20.1c0,0,13-2.9,13.8,12.7c0.3,5.4,0,10.8-1,16.1c-0.9,4.2-2,6.2-2,6.2
		c0-1.1-0.2-2.1-0.5-3.1c-1-2.9-1.7-6.7-10.9-6.7C469.1,598.3,473.9,609.5,468.4,619.6z M406,601.4c-33.2,16.8-69.7-12-69.7-12
		s4.8-60.2,96.5-53.1v0c5.2-0.4,6-1.6,6.1-2C439,537.7,438,585.2,406,601.4z M430.8,584.6c-0.2,5.6-0.7,11.2-1.5,16.8
		c-1.8,12.7-50.6,20.2-81.4-0.8C349.8,601.5,404.5,627.7,430.8,584.6L430.8,584.6z M480.5,528.1c0,0,3.1,17.2-5.8,26.8
		c0,0,2,2.6,6.4-2.4c0,0,2.9,9.8-27.8,26.3c0.5-0.3,4.1-2.9,8.7-11.5l-4.3,0.7c0,0,14-16.5,13.5-21.3c0,0-3.6,4.8-8.4,6.5
		c0,0,4.1-9.7,0.5-16.1c0,0-8.9,3.7-14.5,4.5c0,0,15-12.1,19.4-24.8c0,0,4.6,13.2,1.5,18.9C469.5,535.7,476.4,535.3,480.5,528.1z
		 M478.6,437.4l15.5,16.3l11.1,4.9l-4.8-10.2l14.2,19l-24.4-6.2L478.6,437.4z M437,445L437,445c6.1,16.3,0.3,29.3,0.3,29.3
		c-4.7-3.4-13.4-4.4-13.4-4.4C434,469.2,437,445,437,445z M414.9,494.9c0.6-0.2,1.1-0.4,1.7-0.6c1.7-0.7,3.5-1.4,5.3-2.1
		c3.7-1.5,7.5-3.1,11.1-4.8l1.5-0.7c0.4-0.2,0.8-0.4,1.1-0.6c4.1-1.9,7.9-4.3,11.5-7c0.3-0.2,0.5-0.4,0.8-0.6c0.8-0.6,1.5-1.3,2.1-2
		c0,0,0.5,1.4,0,4.1c-0.5,2.9-2.2,7.2-6.7,12.9c4.3-2.2,9.7-5.1,14.9-7.8c9.2-5,18-9.9,19.6-11.6c0,0,0,0.1-0.1,0.3
		c0.7-0.5,1.4-1.1,2.1-1.6c0,0,0,15.7-7.2,26.3c-0.2,0.3-0.3,0.5-0.5,0.7c-0.4,0.5-0.8,1-1.2,1.5c0,0,0.9-0.6,2.2-1.6
		c1-0.8,2-1.6,3-2.4c0.5-0.4,0.9-0.9,1.3-1.3c-0.3,2.4-0.9,4.7-1.9,6.9c-4.1,9.7-17.1,26.4-57.4,28.1l-2.9,0.2
		c-37.2,2.4-79.1,20.4-84.1,62.6c0,0-3.8-38.1,47.3-56.6c10.1-3.7,22.4-6.6,37.3-8.2c3.1-0.4,6.4-0.7,9.8-0.9
		c15.9-1.1,26.9-5.7,34.4-10.8c9.5-6.4,13.4-13.6,14.5-16c0.1-0.3,0.2-0.5,0.3-0.8l-0.6,0.5c-1.6,1.4-6,5.1-7.8,5.4
		c0,0,1-1.4,2.5-3.8c0.2-0.3,0.3-0.5,0.5-0.8c0.7-1.2,1.5-2.6,2.2-4.1c2.4-4.6,4.2-9.4,5.3-14.4c-3.5,6.9-7.4,10.2-8.5,11l-0.3,0.2
		c0.1-0.1,0.1-0.1,0.2-0.2c3-2.9,6.4-11.1,8.2-16.1c-2.4,1.5-8.8,5.3-15.8,9.4c-8.7,4.9-18.5,10.1-23.6,11.5c0,0,1.1-1.4,2.6-3.5
		c2.9-4.1,7.5-10.7,8.6-14.4c0,0-0.6,0.3-1.6,0.9c-3.7,2.1-13.6,7.3-25,12.3c-10,4.4-21.3,8.6-30.7,10.4c0.1-0.7,0.3-1.3,0.7-1.8
		c1-1.6,2.2-3,3.6-4.2h-0.2c-3.7,0.5-57.8,9.1-64.7,49.5c0.3-11.8,7.7-23.9,19.9-33.6c0,0,0,0,0.1-0.1c12.5-9.9,30.2-17.3,50.5-19.2
		c0,0-4.1,3.6-6,6.5c0,0,0.5-0.2,1.4-0.4l0.4-0.1c1.7-0.5,4.4-1.4,7.8-2.5c0.6-0.2,1.2-0.4,1.9-0.6c2-0.7,4.1-1.4,6.3-2.2
		L414.9,494.9z M420.3,501.2L420.3,501.2c-1.4,0.5-2.8,1.2-4.1,1.9c-4.4,2.3-12.6,0.5-29.8,14.9c6.5-8.6,15.9-14.6,26.4-17
		c2.7-0.6,5.4-1.3,8-2.3c9.9-3.5,13-7.7,13.5-8.3c-0.6,1.1-6.7,12.6-10,15.1C424.4,505,427.4,498.8,420.3,501.2z M415.6,505
		C415.6,505,415.6,504.9,415.6,505C415.6,504.9,415.6,504.9,415.6,505z M415.6,505C415.6,505,415.6,505,415.6,505L415.6,505
		c0,0,0,0.1-0.1,0.1C415.5,505.1,415.6,505,415.6,505z M415.5,505.1L415.5,505.1c-1.5,1.8-14,18.7-26.9,21.5
		c-12.3,2.6-37.2,19.3-41,23.4c2.8-3.4,18.3-21.9,35.4-27.3C400.6,517,413.9,506.4,415.5,505.1z M376.5,516.6
		c0.5-1.4,4-13.4-32,11.4c0-0.2,12.7-17.7,41.3-26.4C385.7,501.6,380.3,512.7,376.5,516.6z M455.1,497.8c-1.8-2.1-9.6,4.2-12.4,3.9
		c3.5-2.5,8-4.3,11.9-6.1c3.2-1.5,6.6-3,8.9-5.6c-2.2,6.3-6.5,11.6-12.2,15.1c1.1-0.8,2-1.7,2.6-2.9c0.7-1.1,1.1-2.4,1.3-3.7
		c0-0.1,0-0.3,0-0.4C455.3,498.1,455.2,497.9,455.1,497.8z M297.9,447.6c1.9,1.6,24.1,7.5,33.6,21.2c0,0-6.4-4.1-12.9-0.8
		c0,0-5.6,7.1-7.4,9.8C311.2,477.7,312.2,464,297.9,447.6z M287.8,464.6c5.4,5.6,10,16.9,10,16.9c1.4-3,1.4-6.9,0.9-10.2
		c-0.4-2.9-1.2-5.7-2.2-8.5c2.1,3.2,3.9,6.6,5.2,10.2c1.2,3.2,2.1,6.6,2.7,10l-8.5,6.7C295.7,481.4,287.2,465.1,287.8,464.6z
		 M286.1,502.9L286.1,502.9c63.1-61.9,123-33.9,124.8-33c-53.3-12-71.6,12.4-71.6,12.4c8.6-0.7,11.1,0.9,11.1,0.9
		c-18.7,6.1-18.4,27.3-18.4,27.3c4.4-0.7,8.2-5.4,8.2-5.4c0.2,11.8-16,14.9-16,14.9c1.5,2.5,9.6,2.7,9.6,2.7l-5.5,12.4
		C313.6,511.9,286.1,502.9,286.1,502.9z M299.6,547.4c0.2,0.2,0.3,0.2,0.3,0.3C299.8,547.6,299.7,547.5,299.6,547.4
		C299.6,547.4,299.6,547.4,299.6,547.4c-2.5-1.8-14.6-6.9-30.4-9.3c-0.4-0.1-0.7-0.1-1.1-0.1c-5.6-0.8-10.5-1-14.3-1.9
		c-3.5-0.9-6.8-2.6-9.5-5c-2.7-2.4-4.7-5.5-5.9-8.8c0.3,0.2,11.4,7.7,28.5,9.4c0.9,0.1,1.8,0.2,2.6,0.4
		C284.4,534.6,297.2,545.3,299.6,547.4c0.1,0.1,0.2,0.2,0.3,0.3C299.8,547.6,299.7,547.5,299.6,547.4z M289.6,527L289.6,527
		c-5.2-3.1-10.8-3.6-17-5.7c-3.5-1.1-6.8-2.6-9.9-4.6c2.7,3.1,5.6,6.1,8.7,8.8c1.8,1.5,3.5,2.7,4.9,3.2c-0.5-0.1-2.5-0.6-5.4-1.5
		c-10.3-3.4-31.8-12.7-36.5-33.5c0,0,16.8,16,41.4,17.9l0.8,0.1c29.9,1.9,50,45,48.5,45.1C324.7,557.1,311,539.6,289.6,527z
		 M324.6,601.2c0,0,13.8,2.2,10.6,17.3v0c0,0-8.1,2.1-12.7,13.7c-1.1,2.8-1.9,5.8-2.3,8.8c-1.1-1.3-2-2.7-2.6-4.3
		c-1.9-4-4-11-3.7-22C317,609.9,320.6,605.3,324.6,601.2z M303.3,614.8c-13.8,3.7-22-19-22.3-19.9c0.5,0.9,12.5,19.5,37.4,2.7h0
		C318.4,597.5,317.5,611,303.3,614.8z M273.1,551.3L273.1,551.3c34.5-1.1,50,34.7,48.3,38.2c-6.6,10.9-24.3,16.7-35.8,6.6
		C273,585.1,270.4,552.3,273.1,551.3z M261.5,622.6c0-0.2,0-0.4,0.1-0.7C261.5,622.3,261.5,622.6,261.5,622.6z M266.3,610.6
		c0,0-4.2,6.2-4.8,11.4c-0.3-5-5.2-35.5,8.1-53.6c0.7,12.4,11.5,65.6,39.7,49.9c0.4-0.2-5.1,11.8-15.9,9.2c0,0,7.9,19.4,21.8,9.9
		c-0.1,0-1.9,8.4-15.6,5v0c0,0-1.3,5.1,2.3,8.3c-0.7-0.5-8.3-4.9-9.4-12.8c0,0-1.9,4.1-0.6,10.2c0,0-7.7-5.5-9.8-13.4
		c0,0-3.9,5.5-3.8,7.5c0,0-2.6-6.4-2.5-16.9c0,0-6.1,4.1-5.4,11.2C270.4,636.2,265.9,628.7,266.3,610.6z M229.6,708.6l1.3,4.6l0.3,1
		l-1.2-0.1l-2.4-12.5L229.6,708.6z M146.3,689.6L146.3,689.6c0-0.2,0-0.2,0.1-0.3c0-0.1,0.1-0.3,0.1-0.4c0.1-0.2,0.1-0.4,0.2-0.6
		c0-0.1,0.1-0.2,0.2-0.3c0,0,0,0,0-0.1c0.1-0.2,0.2-0.3,0.3-0.5l0-0.1c0.1-0.2,0.3-0.4,0.4-0.6s0.4-0.5,0.6-0.7
		c0.2-0.3,0.4-0.5,0.6-0.7c0,0,0,0,0.1-0.1c0,0,0-0.1,0.1-0.1c0.2-0.2,0.4-0.5,0.7-0.7c0.3-0.2,0.5-0.5,0.7-0.7
		c0.6-0.6,1.2-1.1,2-1.7c0.2-0.2,0.5-0.4,0.7-0.6c0.4-0.3,0.8-0.6,1.2-0.9c0.4-0.3,0.8-0.6,1.3-0.9l1.3-0.9c0.5-0.3,0.9-0.6,1.4-1
		c0.2-0.2,0.5-0.3,0.7-0.4c0.2-0.1,0.7-0.4,1-0.6c1.5-0.9,3.1-1.9,4.8-2.8c0.6-0.3,1.1-0.6,1.7-1c2.3-1.3,4.8-2.6,7.4-3.9
		c0.6-0.3,1.2-0.6,1.8-0.9c2.5-1.2,5.2-2.4,7.9-3.6l1-0.4c1.4-0.6,2.8-1.2,4.3-1.8c0.6-0.3,1.3-0.5,1.9-0.8c1.9-0.8,3.9-1.5,6-2.3
		c0.5-0.2,1.1-0.4,1.6-0.6c1.1-0.4,2.2-0.8,3.3-1.2c0.5-0.2,1.1-0.4,1.6-0.6c0.8-0.3,1.7-0.6,2.5-0.9l2.5-0.8c1.6-0.5,3.2-1,4.8-1.5
		c0.1,0,0.3-0.1,0.4-0.1c0.2-0.1,0.4-0.1,0.6-0.2l0.1,0.4l0,0l-0.4,0.1l0.4,1.5l-2.3,0.8c-1.1,0.4-2.2,0.7-3.3,1.1
		c-1.3,0.4-2.5,0.9-3.8,1.3c-0.9,0.3-1.8,0.7-2.6,1l-2.3,0.9c-0.5,0.2-0.9,0.3-1.3,0.5l-2.9,1.2c-0.8,0.3-1.6,0.7-2.5,1
		c-1.4,0.6-2.8,1.2-4.2,1.8c-0.6,0.3-1.2,0.6-1.8,0.8l-2.2,1c-3.5,1.7-6.7,3.4-9.7,5.1c-0.8,0.4-1.5,0.8-2.2,1.3l-0.9,0.5l-0.9,0.5
		c-0.1,0.1-0.2,0.1-0.3,0.2l-1.7,1.1c-1.1,0.7-2.1,1.4-3.2,2.1c-0.1,0.1-0.3,0.2-0.4,0.3c-0.1,0.1-0.3,0.2-0.4,0.3
		c-0.9,0.6-1.7,1.2-2.5,1.8c-0.5,0.4-1,0.8-1.5,1.2c-0.2,0.2-0.5,0.4-0.7,0.6l-0.7,0.6c-0.2,0.2-0.5,0.4-0.7,0.6l-1.2,1.1l-0.1,0.1
		c-0.8,0.8-1.5,1.5-2.2,2.2c-0.2,0.2-0.3,0.4-0.5,0.5c-0.1,0.2-0.3,0.3-0.5,0.5c-0.3,0.4-0.5,0.7-0.8,1c-0.2,0.4-0.4,0.5-0.5,0.8
		c-0.2,0.3-0.3,0.5-0.4,0.7c-0.1,0.2-0.3,0.5-0.4,0.7c-0.1,0.2-0.2,0.5-0.3,0.7c0.3,0.5,0.7,1,1.1,1.5c0.2,0.2,0.3,0.4,0.5,0.6
		c0,0,0,0,0.1,0.1c0.2,0.2,0.5,0.5,0.7,0.7c0.1,0.2,0.3,0.3,0.5,0.4c0.2,0.2,0.4,0.4,0.6,0.5c0.2,0.2,0.4,0.3,0.6,0.5
		c1.3,1,2.6,2,4,2.9c0.3,0.2,0.5,0.3,0.8,0.5c0.3,0.1,0.5,0.3,0.8,0.4c0.3,0.1,0.5,0.3,0.8,0.4l1.4,0.8c0.6,0.3,1.2,0.6,1.8,0.9
		c1.1,0.5,2.2,1,3.4,1.5c0.2,0.1,0.5,0.2,0.7,0.3l0.6,0.2l0.1,0l0.2,0.1h0.1c0.3,0.1,0.6,0.3,0.9,0.4l1.3,0.5h0.1
		c0.4,0.2,0.8,0.3,1.2,0.5l0.3,0.1c0.5,0.2,1,0.4,1.5,0.5l0.9,0.3l0.8,0.3l0.8,0.3c0.8,0.3,1.7,0.5,2.4,0.8c0.9,0.3,1.8,0.6,2.7,0.8
		l0.7,0.2c0.4,0.1,0.7,0.2,1.1,0.3l2.1,0.6l0.2,0.1c0.4,0.1,0.7,0.2,1.1,0.3l1.1,0.3l0.6,0.2c0.3,0.1,0.7,0.2,1,0.2l2.2,0.5
		c0.1,0,0.1,0,0.2,0.1c0,0-0.1,0-0.1,0c-1.2-0.2-4-0.8-7.6-1.6l-1.5-0.3l-0.9-0.2c-0.3-0.1-0.6-0.1-0.9-0.2l-0.5-0.1
		c-0.4-0.1-0.8-0.2-1.2-0.3l-1.3-0.3l-0.7-0.2c-0.7-0.2-1.4-0.4-2.1-0.6l-0.9-0.3c-0.6-0.2-1.3-0.4-1.9-0.6l-1-0.3
		c-0.7-0.2-1.4-0.4-2.2-0.7l-1.4-0.4c-0.5-0.1-0.9-0.3-1.4-0.5c-0.6-0.2-1.2-0.4-1.8-0.6c-2-0.7-4-1.5-5.9-2.3
		c-0.3-0.1-0.6-0.3-0.9-0.4c-0.4-0.2-0.9-0.4-1.3-0.6c-0.4-0.2-0.9-0.4-1.3-0.6c-0.9-0.4-1.7-0.9-2.5-1.3L154,698
		c-0.8-0.5-1.6-1-2.3-1.4c-0.3-0.2-0.6-0.5-1-0.7s-0.5-0.4-0.8-0.6c-0.2-0.2-0.4-0.3-0.6-0.5c0,0-0.1-0.1-0.1-0.1
		c-0.1,0-0.1-0.1-0.1-0.1c-0.2-0.2-0.5-0.4-0.7-0.6c-0.1-0.1-0.2-0.2-0.4-0.4c-0.2-0.2-0.4-0.5-0.6-0.7c-0.3-0.3-0.5-0.6-0.7-0.9
		c-0.2-0.3-0.4-0.7-0.5-1.1C146.2,690.4,146.2,690,146.3,689.6z M293.3,903.1c0.2,0.9,1.1,3.4-1.1,4.1c-2.2,0.6-3.3-1.6-3.7-3
		c-3.3-11.6-14.7-53-27.8-100.5c0.2-0.1,0.4-0.2,0.6-0.3c1.2-0.5,2.4-1.1,3.5-1.8c13,46.6,24.4,87.1,27.8,98
		C293.2,901.6,292.8,901,293.3,903.1z M268.3,793.9l-14.5,8.9l1-4.8l-8.7-3.6C247.3,794.5,268.3,793.9,268.3,793.9z M200.9,749.7
		l2.3,1l2.3,1.1l16,14.3l-21.7,0.7l10.5,9.8l7.1,6.7l3.1,2.9l-36.6-8.1l35.8,15l17.3,13.3c0,0-43.5,0.2-44,0.2
		c-0.6,0-11.3-10.7-11.3-10.7l-1.8,8.7l-15.4-11.4L152,766.8l-1.8,41.5l-28.6-35.1l-7.4-59.4l31.1,42.1l6.3,0.1l11.9,10.3l0.3-6.5
		l5.7,0.7l-33.5-46.7l27.8,20.5c-0.4-4-54.1-47.4-21.6-48.1c0,0-19.4,12.3,52.3,31.9l32,16.4l-34.3,11.3L200.9,749.7z M236.2,731.3
		c-4.5-2-14-6.1-14.6-6.3l-1.2-0.5l14-1.4l4.7-0.4l4.3-0.4l8.5-0.8l21.8-2.1l11-1.1l-11.4,4.9l-19.1,8.2l-7.9,3.4l-4,1.7l-3.8,1.6
		l0.3-5.7L236.2,731.3z M293.2,766.5c-1.8,0.5-3.7,0.8-5.7,1.1c0,0-21.2,1-25.3,0.6c-3.6-0.3-6.6-0.6-8.8-1
		c-4.4-0.7-5.4-1.4-0.3-1.3h0.3c2.4,0,4.9-0.1,7.3-0.4c1,0,1.9,0.1,3,0.1c-0.1-0.2-0.1-0.4-0.2-0.6c4.1-0.9,8.1-2,12-3.4
		c0.2-0.1,0.4-0.1,0.6-0.2c0.3-0.1,0.7-0.2,1-0.3c0.3-0.1,0.7-0.2,1.1-0.4c1.3-0.4,2.2-0.7,2.3-0.8c-0.6-0.8-1.2-1.7-1.7-2.5
		c1.6-0.6,2.7-1.1,2.7-1.1l-2.8,1c0,0,0,0,0,0h-0.1h-0.2c-0.1,0-0.1,0-0.2,0l-0.3,0l-1.1,0.1l-1.1,0.1l-1.3,0.1
		c-0.7,0.1-1.4,0.2-2.2,0.3l-0.8,0.1l-2.4,0.3l-2.4,0.3c-0.7,0.1-1.4,0.2-2.1,0.2c-0.1,0-0.2,0-0.2,0c-0.4,0.1-0.7,0.1-1.1,0.1
		l-2.2,0.3l-0.7,0.1c-3.2,0.4-6.1,0.6-8.4,0.8c-1.5,0.1-2.9,0.2-4.4,0.1c-0.8-0.1-1-0.3-0.1-0.6c1.4-0.5,2.7-0.9,4.1-1.2
		c0.3-0.1,0.6-0.2,0.9-0.2c0.2,0,0.3,0,0.5-0.1c2.3-0.3,5.2-0.7,8.4-1.3c-0.1-0.2-0.1-0.5-0.2-0.7c0.7-0.2,1.4-0.3,2-0.5l0.6-0.2
		c3.5-1,8.2-2.5,10.6-3.3l0.7-0.2l0.1,0l0.4-0.1l0.2-0.1h0.1l0.2-0.1c0.6-0.2,1.2-0.5,1.9-0.7c0.5,0.9,1.1,1.9,1.7,2.8
		c5.5-1,9.7-1.8,10.4-1.9c-0.6,0.1-4.8,0.9-10.4,1.9c0.6,0.9,1.3,1.8,2,2.6c2.9-1.4,5.8-2.9,8.5-4.5c0,0,0,0,0,0
		c-2.8,1.7-5.6,3.2-8.5,4.5c0.9,1,1.8,2,2.8,2.9c1.4,1.3,3,2.7,4.7,4.4c5.1-1,9.8-2.6,13.3-4.8C310.8,753.5,307.6,759.7,293.2,766.5
		z M297.1,742c0.2,3,1.2,6,2.8,8.6l-0.1-0.1c-0.1,0-0.1-0.1-0.2-0.1c-0.3-0.2-0.7-0.4-1-0.6l-0.3-0.2l-0.3-0.2
		c-0.1-0.1-0.2-0.2-0.3-0.2c-0.6-0.5-1.1-1-1.5-1.6c-0.2-0.2-0.3-0.4-0.4-0.6c-0.1-0.2-0.2-0.3-0.3-0.4c-0.2-0.3-0.4-0.6-0.6-0.9
		c-0.1-0.2-0.2-0.3-0.3-0.5c-0.1-0.2-0.2-0.4-0.3-0.6c-0.1-0.2-0.2-0.4-0.3-0.6c0,0,0-0.1-0.1-0.1
		C295.1,743.2,296.2,742.6,297.1,742z M344.3,819.5c-0.1-0.1-0.1-0.1-0.2-0.2c-6-7.6-4.4-17.4-4.4-17.4h-1
		c-0.6,3.4,0.2,8.5,1.4,13.2c1.1,4.2,2.4,8.3,4,12.4c-9.9-4.5-11.6-15.8-11.8-20.4c-0.1-1.2,0-2,0-2h-0.8c0,0.4,0,0.8,0,1.1
		c-0.2,8.8,1.9,13.2,2.1,13.7c-7.1-7.8-8.5-15.5-8.6-20.3c-0.1-1.8,0.1-3.7,0.6-5.5c0,0,11.3-2.7,21.3,0
		C347.8,799.4,344.4,818.8,344.3,819.5z M336.2,778.7c0,0,0,8,3.8,10.9c-3.8-2.4-7.4-5.1-10.8-7.9c-0.3-0.2-0.5-0.5-0.8-0.7l-1-0.9
		L326,779c-0.4-0.3-0.8-0.7-1.2-1.1l-1.5-1.4c-0.5-0.4-0.9-0.9-1.3-1.3c-0.4-0.4-0.9-0.9-1.3-1.3c-0.6-0.6-1.2-1.2-1.8-1.9l-0.9-1
		l-1.7-2c-0.3-0.3-0.6-0.7-0.9-1c-0.3-0.4-0.6-0.7-0.8-1.1c-0.6-0.7-1.1-1.4-1.6-2.2c-0.2-0.3-0.5-0.6-0.7-1
		c-0.4-0.6-0.8-1.1-1.2-1.7c-0.1-0.1-0.2-0.2-0.2-0.4c-0.3-0.5-0.6-1-0.9-1.5c-0.6-1-1.2-2-1.7-3c-0.4-0.7-0.7-1.3-1.1-2
		c-0.2-0.4-0.4-0.8-0.6-1.2c-0.3-0.6-0.6-1.3-0.9-1.9c-0.3-0.6-0.6-1.4-0.8-2c-0.2-0.4-0.3-0.8-0.4-1.2c-0.1-0.4-0.3-1-0.5-1.4
		c-0.1-0.5-0.3-0.9-0.4-1.4c-0.1-0.5-0.3-0.9-0.4-1.4c-0.1-0.4-0.3-1-0.4-1.5c-0.1-0.5-0.2-0.9-0.3-1.3c-0.1-0.4-0.2-0.9-0.2-1.3
		c-0.1-0.4-0.2-1-0.2-1.6c0,0,0,0,0,0c3.5-2.4,5.1-3.8,4.6-3.6c-1.5,0.7-3,1.5-4.7,2.1c0,0,0,0-0.1,0c0,0,0-0.1,0-0.1
		c0-0.5-0.1-0.9-0.1-1.4c0-0.5-0.1-1-0.1-1.5c-1.2,0.9-2.7,2-4.4,3.1c0,0.3-0.1,0.5-0.1,0.8c0,0.3-0.1,0.5-0.1,0.8c0,0,0,0.1,0,0.1
		c-1.4,0.5-2.9,1-4.4,1.4c0-0.1-0.1-0.2-0.1-0.2c-0.3,0.2-0.7,0.4-1,0.6c-5.8,1.7-11.7,3.1-17.7,4.1h-0.2l-0.3,0l-0.2,0l-1.6,0.2
		l-1.1,0.2l-0.6,0.1l-0.6,0.1c-0.2,0-0.4,0-0.6,0.1l-1.3,0.2c-0.3,0-0.6,0.1-1,0.1l-1.4,0.2l-2.9,0.5L261,747h0l-1.1,0.2l-1,0.1
		l-1,0.1c-0.1,0-0.2,0-0.3,0.1c-2.8,0.3-5.7,0.7-8.5,0.9c-1.4,0.1-2.9,0.3-4.3,0.4c-1.5,0.2-3,0.3-4.5,0.4l-1.3-5.7
		c0.2,0,0.3-0.1,0.5-0.1l1.2,4.4c1.5-0.2,3-0.4,4.5-0.6c-0.4-1.6-0.9-3.2-1.3-4.8c1.3-0.3,2.5-0.6,3.7-1c0.2,0,0.3-0.1,0.5-0.1
		l1.5,5.3c2.8-0.4,5.6-0.9,8.4-1.4c-0.6-2.1-1.2-4.2-1.8-6.3l0.8-0.3c0.2-0.1,0.4-0.2,0.6-0.2l1.2-0.4l0.6-0.2
		c0.6-0.2,1.3-0.4,1.9-0.7c0.2-0.1,0.4-0.2,0.7-0.2c1.8-0.7,3.7-1.3,5.4-2c0.3-0.1,0.5-0.2,0.8-0.3l2.1-0.8c0.2-0.1,0.3-0.1,0.5-0.2
		c0.2-0.1,0.3-0.1,0.4-0.2c0.1-0.1,0.4-0.1,0.5-0.2h0.1c0.1,0,0.2-0.1,0.2-0.1l0.3-0.1l0.2-0.1c0,0,0,0,0.1,0c0.3,3,0.9,6,1.7,8.9
		c-0.1,0-14.2,2.8-16.3,3.3l16.3-3.3c0,0,0,0,0,0c6-1.4,11.9-3.1,17.7-5.1c0-0.3-0.1-0.6-0.2-0.9c-0.1-0.8-0.2-1.7-0.3-2.5
		c0-0.4-0.1-0.9-0.1-1.3c0-0.5-0.1-1.1-0.1-1.6c0-1.1,0-2.3,0-3.5c0-0.6,0-1.2,0.1-1.8c0-0.5,0.1-1,0.1-1.5c0,0,0-0.1,0-0.1
		c0.5-0.3,1-0.6,1.5-0.9c19.8-12.1,26.1-23.4,26.1-23.4c-8.8,4.5-18.1,7.9-27.7,10.4c-4.9,1.3-9.9,2.3-15,3.2c-0.1,0-0.1,0-0.2,0
		h-0.2c-0.4,0.1-0.8,0.1-1.2,0.2l-0.3,0c-7.9,1.3-15.9,2.1-24,2.4c-2.8,0.1-5.7,0.2-8.6,0.2c-1.5,0-2.9,0-4.3,0h-0.4
		c-1.5,0-2.9,0-4.4-0.1l-0.3-1.1c1.1,0,2.2-0.1,3.3-0.1h0.4c-0.1-0.6-0.3-1.1-0.4-1.7c-0.2-0.7-0.4-1.4-0.6-2.1
		c-6.4-23.1-12.1-43.7-16.2-58.6c-0.2-0.6-0.3-1.2-0.5-1.8c-0.2-0.6-0.3-1-0.4-1.5c-0.1-0.5-0.3-1.1-0.5-1.6
		c-3.5-12.2-5.5-19.5-5.7-19.5c0,0-3-9-4.6-12.1c-2.8-5.4-8.4-13.8-8.4-13.8s-1.8-1.8-0.3-2.7c1.7-0.9,3.6,2.2,3.6,2.2
		c0,0.1,9.4,9.6,14.3,26.4c0.7,2.3,2.5,8.8,5.1,18.3c0.1,0.5,0.3,1,0.4,1.6c0.2,0.5,0.3,1,0.4,1.4c0.1,0.5,0.3,1.1,0.5,1.7
		c4.1,15,10,36,16.5,59.5c0.2,0.7,0.4,1.3,0.6,2c0.2,0.7,0.4,1.3,0.5,1.9c2.9-0.2,5.7-0.4,8.6-0.7c-0.1-0.6-0.3-1.4-0.5-2.1
		c-0.2-0.6-0.4-1.3-0.5-1.9c-6.4-22.8-12.4-43.9-17.5-60.9L230,647c1.6-0.4,3.2-0.8,4.8-1.2c0.6-0.1,1.2-0.3,1.9-0.4
		c2.5-0.6,5-1.1,7.5-1.6c0.8-0.2,1.6-0.3,2.4-0.4c3.2-0.6,6.5-1.1,9.7-1.5c0.5-0.1,1-0.1,1.5-0.2c1.3-0.2,2.6-0.3,4-0.4
		c0.6-0.1,1.3-0.1,1.9-0.2c1.3-0.1,2.7-0.2,4-0.3c-5,0.7-9.8,1.5-14.5,2.5c-1.6,0.3-3.1,0.6-4.7,1c-3.4,0.7-6.7,1.5-9.9,2.3
		c-1.1,0.3-2.3,0.6-3.4,0.9l-3.4,0.9l16.2,61.3l24-2.2c0,0-1.1-31.9,24.7-46.7c-2.3,1.4-11.5,7.8-17.3,21.8c0,0,0,0.1-0.1,0.1
		c-2.8,6.8-4.4,16.3-4.5,27c5-1.1,10-2.4,14.8-4c0.1-0.6,0.3-1.3,0.5-2c0.1-0.3,0.2-0.7,0.3-1c0.1-0.4,0.2-0.7,0.3-1.1
		c0.1-0.4,0.2-0.7,0.4-1.1c0.1-0.3,0.2-0.6,0.3-0.8c0.3-0.7,0.6-1.3,0.9-2c0.1-0.2,0.2-0.4,0.3-0.6c0.2-0.4,0.4-0.7,0.6-1.1
		c0.2-0.4,0.4-0.8,0.7-1.2c0.2-0.3,0.3-0.5,0.5-0.8c0,0,0-0.1,0.1-0.1c0.2-0.3,0.4-0.6,0.6-0.8c0.2-0.3,0.4-0.6,0.6-0.9
		c0.2-0.3,0.3-0.5,0.5-0.7c0.3-0.4,0.5-0.7,0.8-1.1c0.2-0.2,0.4-0.5,0.6-0.7c0.5-0.6,1.1-1.3,1.7-1.9c-1.4,1.3-7.1,6.9-8.1,9.1
		c0,0-1.8-12.1,32.9-46.3c4.9-4.8,10.5-10.1,16.9-15.8c0,0,0.1,0.6,0.4,1.7c2.1,6.8,11.8,31.8,44.3,29.9c2-0.1,3.9-0.1,5.7-0.1
		c31.6,0.7,35.4,23.7,35.6,24.7c-0.3-0.5-5.1-8.8-20.2-15.2c0,0,2.7,2.2,6.7,6.1c-6.7-1-13.5-1.2-20.2-0.5
		c-10.8,1.1-23.4,4.9-31,15.6c0,0,18.2,12,13.2,36.6c0,0-1-10.6-10.7-11.8c0,0-15.5,14.5-11.3,44.7c0,0-7.7-4.2-9.9-13.1
		c0,0-1.2,24.5,14.9,33.3C358.5,786.5,344.2,784.3,336.2,778.7z M388.3,797.8c-1,6.6-0.1,15,0.9,21c0.4,2.6,0.8,4.8,1.1,6.1
		c0.2,0.9,0.3,1.5,0.3,1.5c-0.5-0.3-0.9-0.6-1.3-0.9l-0.1,0.1l-0.1-0.2c-12.9-9.6-10.5-28.9-10.5-28.9h-1.3c-1,5.8,1.6,18,1.8,18.6
		c-7.2-13.5-6.4-22.2-6.4-22.2l0,0c14.8-19.4,33.1-2.1,33.1-2.1c-3.2,12.8-9.8,26.2-12.2,30.8c-0.6,1.1-0.9,1.7-0.9,1.7
		c-0.6-1-1.1-2.1-1.5-3.2c-3.1-8.9-2-22.5-2-22.5L388.3,797.8z M483.5,950.2v25.2l-72.6-86.2l40.7,53.6l0.5,20
		c-5.7-5.8-17.1-18.4-17.1-18.4l-4.6-21.2l-1.6,28.4l-41.7-105.2l29.8,129l-19.1-12.6l-8.8-61l-14.5,32.7l-6.1-12.2l-2.6-67.5
		l-0.5,0.3l-1,3.6l-0.5,1.9l-5,18.2l-4.4-17.6l7.7-43.5l1.1-6.3c0,2.4,0.4,4.9,0.9,7.3c2.8,12.4,10.9,26.8,10.9,26.8v-22.3l1.5,1.2
		l0.1,0l17.6,14.6v-5l28.3,34.8l0.8-4.7L483.5,950.2z M541.3,979.3h9.2l-2.7-13.3l23.7,30.2l-34-13.3l-58-63.9
		C482,918.3,541.3,979.3,541.3,979.3z M503.4,919l-47-21.2l-34-43.1l35.5,15.8L503.4,919z M450.3,823.4l5.1,29.7l0.3,1.4l1.1,6.6
		l-42.3-32l-1.2-0.9l-1.5-1.2c0.5,0.3,1,0.5,1.5,0.7c0.4,0.1,0.8,0.3,1.2,0.4c4,1.3,12.1,2.8,22.4-1.2l9.2,4.7L450.3,823.4z
		 M432.7,655.5c55.5-30.6,59.1-73.5,59.1-73.5c-0.1-0.5-0.3-1-0.6-1.4c-1.4-2.2-4.5-5.2-4.5-5.2c2.7-5.1,4.9-10.4,6.7-15.9
		c7.1-22.3,3.2-39.9,1.7-44.7c-1.8-5.8-8.4-8.6-8.4-8.6l0.4-2.1c0,0,5.1,0,10.8,9.6c4.5,18,2.8,36.9-4.7,53.9
		c-1.1,2.5-2.3,4.9-3.8,7.2c0.9,0.6,1.8,1.3,2.6,2.1c1,1.1,2,2.2,2.8,3.5C490.3,628.1,436.1,653.9,432.7,655.5z M500.8,725.2
		l-30.4,43.5L458,743.9l-4.8-9.7l6.5-41.7l1,19.2l0.9,17.3l10.2,13.5l14.5-18l19.5-85.3L500.8,725.2z M529.5,682.1l-20.2-25.9
		l3.9-25.5l0.6,21.8l11.2,11.9l5.8-16.4l1.5-50.3l5.6,57.6L529.5,682.1z M518,525l-20-39.2l25.3,33.2l20.2,9l-6.4-19.2l-16.6-11.2
		l21.3,10.1l15.3,37.5L518,525z M567.5,630.4l-13.6-22.5l4.8-43.1l2.1,38.6l8.8,11.7l9.2-19.7l-5.5-23.4l8.1,24.3L567.5,630.4z
		 M585.7,614.4l-4.3-37.8l8.8,14.8l8.3-13.1l-14.2-22.7l18.9,25.2L585.7,614.4z M593.1,561.1l-6.8-36.6l16.6,33.8l13.1,8.8V538
		l7.4,47.1L593.1,561.1z M594,516.9l-17.8-35.7l23.9,30.2l21,12.3l-1.7-19.2l-23.9-18.5l29,17l5.7,38.7L594,516.9z M645.8,517.7
		l-16.2-7.4l-2.4-9.3l6.1,2.4l-5.1-18.5l-23.3-7.4l26.5,3.6L645.8,517.7z"/>
	<path d="M261.1,756.9c2.8-0.4,18.3-3.2,18.3-3.2L261.1,756.9z"/>
	<path d="M377.9,385.6l-0.1-0.3C377.8,385.4,377.9,385.5,377.9,385.6l-1.4-3.4c0,0.1,0.1,0.2,0.1,0.3l-0.1-0.3
		C376.9,383.4,377.4,384.5,377.9,385.6z"/>
	<path d="M380.3,390l-1.6-2.7C379.2,388.1,379.7,389,380.3,390z"/>
	<polygon points="381,390.9 380.3,391.2 381,391 	"/>
</g>
</svg>
